<?xml version="1.0" encoding="iso-8859-1"?>
<!-- Generator: Adobe Illustrator 19.0.0, SVG Export Plug-In . SVG Version: 6.00 Build 0)  -->
<svg version="1.1" id="Capa_1" xmlns="http://www.w3.org/2000/svg" xmlns:xlink="http://www.w3.org/1999/xlink" x="0px" y="0px"
	 viewBox="0 0 512.259 512.259" style="enable-background:new 0 0 512.259 512.259;" xml:space="preserve">
<g transform="translate(-1 -1)">
	<g transform="translate(1 1)">
		<path style="fill:#B2CDF8;" d="M461.667,246.003c-14.933,81.067-45.141,119.808-56.235,146.432l0.085,0.256
			c0,25.6,30.465,102.4,42.667,110.933H234.85c-1.306-17.671-7.123-34.712-16.896-49.493l-0.341-0.939
			c-7.083,2.475-14.335,4.779-21.504,6.741c-28.33,7.765-55.723,11.435-69.29,8.619c-0.085,0.085-0.085,0.085-0.171,0
			c-0.952-0.168-1.893-0.396-2.817-0.683c-26.113-8.533-17.408-25.6-17.408-42.667c0-17.067-8.704-8.533-17.408-17.067
			c-8.704-8.533,8.704-17.067,8.704-17.067c-17.407,0-17.407,0-17.407-25.6c0.034-4.596-1.8-9.009-5.082-12.227
			c-3.282-3.218-7.731-4.965-12.326-4.839c-43.435-8.533,16.384-45.312,17.408-85.333c0.222-8.631-0.61-17.256-2.476-25.685
			c-1.28-6.4-2.987-12.288-4.436-18.347c-1.69-6.517-2.804-13.17-3.329-19.883c-0.622-14.181,0.961-28.374,4.693-42.069
			C92.6,84.979,148.407,34.803,219.831,15.688c13.679-3.618,27.687-5.848,41.813-6.656c40.529-2.827,80.99,6.375,116.309,26.453
			C447.927,77.384,475.917,168.776,461.667,246.003z"/>
		<g>
			<path style="fill:#E7EBF4;" d="M436.067,246.003c-14.933,81.067-45.141,119.808-56.235,146.432l0.085,0.256
				c0,25.6,30.465,102.4,42.667,110.933H234.85c-1.306-17.671-7.123-34.712-16.896-49.493l-0.341-0.939
				c-7.083,2.475-14.335,4.779-21.504,6.741c-1.144-2.002-2.398-3.939-3.755-5.803l-0.341-0.939
				c-21.101,7.501-42.964,12.652-65.194,15.36c-0.085,0.085-0.085,0.085-0.171,0c-0.952-0.168-1.893-0.396-2.817-0.683
				c-26.113-8.533-17.408-25.6-17.408-42.667c0-17.067-8.704-8.533-17.408-17.067c-8.704-8.533,8.704-17.067,8.704-17.067
				c-17.407,0-17.407,0-17.407-25.6c0.034-4.596-1.8-9.009-5.082-12.227c-3.282-3.218-7.731-4.965-12.326-4.839
				c-43.435-8.533,16.384-45.312,17.408-85.333c0.222-8.631-0.61-17.256-2.476-25.685c-1.28-6.4-2.987-12.288-4.436-18.347
				c-1.69-6.517-2.804-13.17-3.329-19.883c-0.622-14.181,0.961-28.374,4.693-42.069C92.6,84.979,148.407,34.803,219.831,15.688
				c13.679-3.618,27.687-5.848,41.813-6.656c31.916,1.44,63.022,10.512,90.709,26.453
				C422.327,77.384,450.317,168.776,436.067,246.003z"/>
			<circle style="fill:#E7EBF4;" cx="268.983" cy="59.891" r="17.067"/>
			<circle style="fill:#E7EBF4;" cx="243.383" cy="136.691" r="17.067"/>
			<circle style="fill:#E7EBF4;" cx="311.65" cy="136.691" r="17.067"/>
			<circle style="fill:#E7EBF4;" cx="354.317" cy="204.957" r="17.067"/>
			<circle style="fill:#E7EBF4;" cx="192.183" cy="76.957" r="17.067"/>
			<circle style="fill:#E7EBF4;" cx="158.05" cy="136.691" r="17.067"/>
			<circle style="fill:#E7EBF4;" cx="183.65" cy="213.491" r="17.067"/>
			<circle style="fill:#E7EBF4;" cx="277.517" cy="213.491" r="17.067"/>
			<circle style="fill:#E7EBF4;" cx="414.05" cy="187.891" r="17.067"/>
			<circle style="fill:#E7EBF4;" cx="388.45" cy="119.624" r="17.067"/>
			<circle style="fill:#E7EBF4;" cx="337.25" cy="76.957" r="17.067"/>
			<circle style="fill:#E7EBF4;" cx="328.717" cy="298.824" r="17.067"/>
			<circle style="fill:#E7EBF4;" cx="388.45" cy="264.691" r="17.067"/>
		</g>
	</g>
	<path style="fill:#FFFFFF;" d="M63.903,349.403c4.595-0.125,9.043,1.622,12.326,4.839c3.282,3.218,5.117,7.631,5.082,12.227
		c0,25.6,0,25.6,17.407,25.6c0,0-17.407,8.533-8.704,17.067c8.703,8.533,17.408,0,17.408,17.067
		c0,17.067-8.704,34.133,17.408,42.667c0.923,0.287,1.864,0.515,2.817,0.683c0.085,0.085,0.085,0.085,0.171,0
		c8.519,1.234,17.171,1.238,25.691,0.012l-0.09-0.012c-0.085,0.085-0.085,0.085-0.171,0c-0.952-0.168-1.893-0.396-2.817-0.683
		c-26.113-8.533-17.408-25.6-17.408-42.667c0-17.067-8.704-8.533-17.408-17.067c-8.704-8.533,8.704-17.067,8.704-17.067
		c-17.407,0-17.407,0-17.407-25.6c0.034-4.596-1.8-9.009-5.082-12.227c-3.282-3.218-7.731-4.965-12.326-4.839
		c-43.435-8.533,16.384-45.312,17.408-85.333c0.222-8.631-0.609-17.256-2.475-25.685c-1.28-6.4-2.987-12.288-4.436-18.347
		c-1.69-6.517-2.804-13.17-3.329-19.883c-0.622-14.181,0.961-28.374,4.693-42.069C119.2,85.979,175.007,35.803,246.431,16.688
		c13.494-3.565,27.309-5.779,41.241-6.608c-8.335-0.485-16.691-0.5-25.027-0.048c-14.126,0.808-28.135,3.038-41.813,6.656
		C149.407,35.803,93.6,85.979,75.765,158.085c-3.732,13.696-5.315,27.888-4.693,42.069c0.526,6.712,1.64,13.365,3.329,19.883
		c1.45,6.059,3.156,11.947,4.436,18.347c1.866,8.429,2.697,17.055,2.475,25.685C80.287,304.091,20.469,340.869,63.903,349.403z"/>
	<g>
		<polygon style="fill:#FFFFFF;" points="235.85,496.091 346.783,496.091 449.183,496.091 449.183,513.157 346.783,513.157 
			235.85,513.157 		"/>
		<g>
			<path style="fill:#51A1FF;" d="M471.042,248.578c13.333-72.417-8.433-171.963-87.742-219.4
				C333.208,1.078,274.125-6.357,218.633,8.457C141.767,29.011,85.267,84.17,67.5,156.003c-3.961,14.57-5.64,29.666-4.975,44.75
				c0.851,9.359,2.578,18.618,5.159,27.654c3.473,11.5,5.193,23.458,5.1,35.471c-0.358,14.3-10.208,29.138-18.908,42.229
				c-9.483,14.287-17.675,26.625-12.925,38.004c4.508,7.713,12.442,12.795,21.333,13.667c0.512,0.092,1.03,0.145,1.55,0.158
				c2.376-0.291,4.758,0.497,6.491,2.149c1.733,1.652,2.635,3.993,2.459,6.38c0,17.733,0.442,26.883,7.767,31.079
				c-0.639,1.334-1.085,2.753-1.325,4.212c-0.736,5.005,1.067,10.049,4.808,13.454c3.72,3.603,8.433,6.009,13.533,6.908
				c0.358,0.083,0.7,0.146,1.033,0.225c0.202,1.269,0.291,2.553,0.267,3.838c-0.061,3.173-0.286,6.342-0.675,9.492
				c-1.417,13.65-3.358,32.346,23.95,41.271c5.481,1.532,11.162,2.223,16.85,2.05c25.858-1.148,51.413-6.047,75.863-14.542
				c7.059,12.31,11.315,26.027,12.462,40.171c-0.001,2.263,0.898,4.434,2.499,6.035c1.6,1.6,3.771,2.499,6.035,2.499h34.133
				c4.713,0,8.533-3.82,8.533-8.533s-3.821-8.533-8.533-8.533H243.66c-2.125-13.075-6.361-25.717-12.543-37.432
				c24.724-9.69,46.503-22.149,56.957-35.822c2.845-3.747,2.122-9.09-1.616-11.946s-9.083-2.15-11.951,1.579
				c-24.15,31.6-124.633,55.592-147.067,48.254c-14.208-4.646-13.642-10.1-12.275-23.283c0.453-3.737,0.709-7.495,0.767-11.258
				c0-14.379-5.8-18.671-14.517-20.692c-1.645-0.235-3.216-0.842-4.592-1.775c1.675-1.601,3.576-2.947,5.642-3.996
				c3.562-1.75,5.448-5.724,4.55-9.59s-4.34-6.603-8.309-6.606c-3.083,0-6.508,0-8.308-0.225c-0.542-5.594-0.726-11.216-0.55-16.833
				c0.167-6.729-2.391-13.24-7.093-18.056c-4.702-4.816-11.151-7.529-17.882-7.523c-6.15-1.296-8.017-2.963-8.175-3.35
				c-1.242-2.962,6.983-15.337,11.4-21.987c9.475-14.267,21.267-32.025,21.75-51.237c0.239-10.661-0.947-21.306-3.527-31.653
				c9.305-8.188,20.286-14.244,32.177-17.743c4.237-0.74,8.591-0.435,12.683,0.887c4.543,1.252,9.24-1.416,10.492-5.958
				c1.252-4.543-1.416-9.24-5.958-10.492c-6.72-2.068-13.844-2.458-20.75-1.137c-12.059,3.072-23.329,8.669-33.065,16.421
				c-1.166-4.971-1.955-10.023-2.36-15.113c-0.578-13.298,0.949-26.604,4.525-39.425c16.5-66.688,67.15-115.95,138.983-135.159
				c51.027-13.685,105.38-6.908,151.484,18.888c72.325,43.254,92.025,134.854,79.725,201.658
				c-7.669,42.662-22.567,83.702-44.05,121.35c-4.692,8.754-8.742,16.313-11.667,23.308c-0.498,1.262-0.681,2.627-0.531,3.976
				c0.231,20.454,18.656,74.346,34.466,101.97H338.25c-4.713,0-8.533,3.82-8.533,8.533s3.821,8.533,8.533,8.533h110.933v-0.061
				c2.687-0.045,5.195-1.355,6.767-3.534c2.701-3.819,1.882-9.093-1.85-11.913c-8.829-6.704-38.068-77.335-38.967-102.705
				c2.577-5.851,6.029-12.421,10.117-20.053C447.51,335.662,462.991,292.958,471.042,248.578z"/>
			<path style="fill:#51A1FF;" d="M304.117,496.091c-2.259,0.033-4.422,0.917-6.059,2.475l-1.025,1.279
				c-0.324,0.476-0.583,0.993-0.771,1.538c-0.246,0.484-0.417,1.002-0.508,1.537c-0.096,0.564-0.153,1.133-0.171,1.705
				c0.031,2.259,0.915,4.423,2.475,6.059c1.994,2.07,4.908,2.979,7.726,2.409c2.818-0.57,5.149-2.539,6.183-5.222
				c0.438-1.027,0.67-2.13,0.684-3.246c0.022-2.27-0.87-4.453-2.475-6.058C308.57,496.961,306.386,496.069,304.117,496.091z"/>
			<path style="fill:#51A1FF;" d="M354.866,304.287l21.147-16.903c4.024,2.537,8.681,3.891,13.438,3.907
				c13.22,0.011,24.27-10.053,25.491-23.216c1.221-13.163-7.79-25.088-20.787-27.508l-16.341-22.651
				c1.002-1.848,1.77-3.814,2.287-5.853l15.825-6.328c7.309,8.32,19.147,10.982,29.313,6.59
				c10.166-4.391,16.344-14.834,15.298-25.859s-9.08-20.118-19.891-22.518l-12.82-25.573c8.993-9.163,9.77-23.584,1.812-33.659
				s-22.166-12.662-33.163-6.036l-14.296-11.869c1.082-2.828,1.648-5.826,1.672-8.854c0.023-10.455-6.328-19.869-16.031-23.762
				s-20.8-1.481-28.01,6.09l-25.299-6.324c-3.03-10.974-12.982-18.6-24.367-18.669c-11.385-0.069-21.429,7.435-24.592,18.371
				l-33.81,6.762c-8.819-9.51-23.375-10.877-33.81-3.175c-10.435,7.702-13.418,22.014-6.93,33.244l-16.567,22.063
				c-11.872,2.146-20.62,12.311-20.973,24.37c-0.353,12.059,7.786,22.718,19.512,25.555l13.699,33.819
				c-7.516,7.378-9.735,18.613-5.589,28.295s13.808,15.829,24.335,15.481c10.527-0.348,19.762-7.119,23.26-17.053h45.813
				c3.825,11.766,15.761,18.89,27.932,16.672l28.329,43.091c-7.268,8.058-8.649,19.828-3.445,29.35
				c5.204,9.521,15.858,14.714,26.564,12.947C344.577,323.316,352.997,314.976,354.866,304.287z M329.717,274.224
				c-1.31,0.03-2.616,0.162-3.905,0.395l-28.329-43.091c2.531-2.822,4.399-6.173,5.468-9.809l28.806-5.761
				c5.492,12.971,20.439,19.057,33.429,13.611l10.527,14.592c-7.374,4.678-11.848,12.797-11.863,21.53
				c0.031,2.851,0.544,5.676,1.517,8.356l-14.405,11.515C346.211,278.478,338.245,274.227,329.717,274.224z M204.783,198.867
				l41.909-34.924l14.271,32.008c-2.917,2.778-5.135,6.207-6.474,10.007h-45.813C207.766,203.401,206.451,201.008,204.783,198.867z
				 M183.077,129.157c-1.863-5.282-5.405-9.809-10.085-12.886l10.904-14.521c5.199,2.144,10.987,2.389,16.349,0.693l26.347,16.905
				c-2.804,2.747-4.938,6.104-6.235,9.809H183.077z M271.675,91.72l25.62,25.617c-3.983,3.009-6.998,7.118-8.672,11.82H268.41
				c-2.015-5.65-5.953-10.411-11.125-13.451L271.675,91.72z M337.083,144.919l33.81-6.762c0.538,0.569,1.125,1.075,1.712,1.593
				l-15.77,39.428l-27.643-22.114C332.943,153.864,335.684,149.645,337.083,144.919L337.083,144.919z M330.883,198.729
				l-28.806,5.761c-1.187-2.727-2.839-5.226-4.883-7.386l17.748-29.584l23.831,19.065
				C335.023,189.784,332.283,194.003,330.883,198.729L330.883,198.729z M278.517,188.891c-0.661,0-1.282,0.146-1.931,0.195
				l-14.649-32.855c2.917-2.778,5.135-6.207,6.474-10.007h20.213c2.015,5.65,5.953,10.411,11.125,13.45l-17.742,29.569
				C280.852,189.045,279.686,188.927,278.517,188.891z M244.383,129.157c4.713,0,8.533,3.821,8.533,8.533
				c0,4.713-3.821,8.533-8.533,8.533c-4.713,0-8.533-3.821-8.533-8.533C235.855,132.98,239.672,129.162,244.383,129.157z
				 M355.317,197.424c1.056,0.013,2.099,0.224,3.077,0.622l0.073,0.048c0.077,0.031,0.158,0.018,0.235,0.046
				c3.991,1.752,6.012,6.238,4.678,10.388c-1.334,4.15-5.59,6.618-9.855,5.716c-4.264-0.903-7.155-4.884-6.694-9.219
				S350.958,197.408,355.317,197.424z M321.183,137.691c0,4.713-3.82,8.533-8.533,8.533s-8.533-3.821-8.533-8.533
				c0-4.713,3.82-8.533,8.533-8.533C317.361,129.162,321.179,132.98,321.183,137.691z M389.45,274.224
				c-4.713,0-8.533-3.82-8.533-8.533s3.821-8.533,8.533-8.533c4.713,0,8.533,3.82,8.533,8.533
				C397.979,270.402,394.161,274.219,389.45,274.224z M378.079,194.488c-1.468-2.905-3.477-5.504-5.919-7.657l16.283-40.709
				c0.341,0.014,0.662,0.102,1.007,0.102c1.028-0.04,2.053-0.144,3.069-0.31l10.332,20.611
				c-8.226,4.438-13.368,13.019-13.401,22.366c0,0.346,0.089,0.667,0.102,1.01L378.079,194.488z M415.05,197.424
				c-3.397-0.007-6.466-2.028-7.815-5.146c-0.029-0.078-0.013-0.159-0.044-0.237l-0.054-0.083c-0.397-0.975-0.608-2.015-0.621-3.067
				c0-4.713,3.82-8.533,8.533-8.533s8.533,3.821,8.533,8.533S419.763,197.424,415.05,197.424z M397.983,120.624
				c-0.005,4.711-3.822,8.529-8.533,8.533c-1.056-0.013-2.099-0.224-3.077-0.622l-0.073-0.048c-0.075-0.03-0.154-0.014-0.231-0.043
				c-3.912-1.693-5.973-6.016-4.826-10.121c1.148-4.106,5.151-6.733,9.374-6.153C394.841,112.75,397.986,116.361,397.983,120.624z
				 M338.25,69.424c4.713,0,8.533,3.821,8.533,8.533s-3.82,8.533-8.533,8.533s-8.533-3.821-8.533-8.533
				C329.721,73.246,333.539,69.429,338.25,69.424z M338.25,103.557c4.576-0.024,9.061-1.287,12.976-3.656l14.296,11.869
				c-1.082,2.828-1.649,5.826-1.673,8.854c0,0.516,0.123,0.999,0.152,1.508l-27.792,5.558c-3.485-8.112-10.903-13.857-19.629-15.202
				l-31.244-31.243c3.469-2.599,6.224-6.034,8.006-9.985l19.491,4.873c-0.045,0.614-0.184,1.2-0.184,1.825
				C312.665,92.089,324.118,103.542,338.25,103.557z M269.983,52.357c4.713,0,8.533,3.821,8.533,8.533s-3.821,8.533-8.533,8.533
				c-4.713,0-8.533-3.821-8.533-8.533C261.455,56.18,265.272,52.362,269.983,52.357z M246.423,70.891
				c2.181,5.03,5.917,9.23,10.658,11.983l-15.49,25.817L214.813,91.51c2.58-4.051,3.956-8.751,3.97-13.553
				c0-0.516-0.123-0.999-0.152-1.508L246.423,70.891z M193.183,69.424c4.713,0,8.533,3.821,8.533,8.533s-3.82,8.533-8.533,8.533
				s-8.533-3.821-8.533-8.533C184.655,73.246,188.472,69.429,193.183,69.424z M159.05,129.157c4.713,0,8.533,3.821,8.533,8.533
				c0,4.713-3.821,8.533-8.533,8.533c-4.713,0-8.533-3.821-8.533-8.533C150.521,132.98,154.339,129.162,159.05,129.157z
				 M170.555,160.433c5.839-2.959,10.32-8.045,12.522-14.209h37.279c1.537,4.298,4.198,8.105,7.706,11.024l-38.559,32.133
				c-1.598-0.318-3.223-0.482-4.853-0.491c-0.845,0-1.643,0.169-2.467,0.25L170.555,160.433z M184.65,223.024
				c-4.713,0-8.533-3.821-8.533-8.533c0-4.713,3.821-8.533,8.533-8.533c4.713,0,8.533,3.821,8.533,8.533
				C193.179,219.202,189.361,223.019,184.65,223.024z M269.983,214.491c0-4.713,3.821-8.533,8.533-8.533s8.533,3.821,8.533,8.533
				c0,4.713-3.82,8.533-8.533,8.533C273.806,223.019,269.988,219.202,269.983,214.491z M321.183,299.824
				c0-4.713,3.821-8.533,8.533-8.533c4.713,0,8.533,3.82,8.533,8.533s-3.821,8.533-8.533,8.533
				C325.006,308.353,321.188,304.535,321.183,299.824z"/>
		</g>
	</g>
</g>
<g>
</g>
<g>
</g>
<g>
</g>
<g>
</g>
<g>
</g>
<g>
</g>
<g>
</g>
<g>
</g>
<g>
</g>
<g>
</g>
<g>
</g>
<g>
</g>
<g>
</g>
<g>
</g>
<g>
</g>
</svg>
